<svg xmlns="http://www.w3.org/2000/svg" width="1472" height="704" viewBox="0 0 1472 704"><path d="M 1444 670 L 1443 671 L 1442 671 L 1439 674 L 1439 675 L 1438 676 L 1438 677 L 1438 676 L 1444 670 L 1445 670" fill="none" stroke="red" stroke-width="2"/><path d="M 1428 670 L 1429 670 L 1435 676 L 1435 678 L 1436 679 L 1437 679 L 1436 679 L 1435 678 L 1435 676 L 1434 675 L 1434 674 L 1431 671 L 1430 671 L 1429 670" fill="none" stroke="red" stroke-width="2"/><path d="M 1438 660 L 1438 661 L 1439 662 L 1439 663 L 1442 666 L 1443 666 L 1444 667 L 1446 667 L 1447 668 L 1447 669 L 1447 668 L 1446 667 L 1444 667 L 1438 661" fill="none" stroke="red" stroke-width="2"/><path d="M 1436 658 L 1435 659 L 1435 661 L 1429 667 L 1427 667 L 1426 668 L 1426 669 L 1426 668 L 1427 667 L 1429 667 L 1430 666 L 1431 666 L 1434 663 L 1434 662 L 1435 661 L 1435 659 L 1436 658 L 1437 658" fill="none" stroke="red" stroke-width="2"/><path d="M 600 546 L 600 547 L 599 548 L 598 548 L 599 548 L 600 547" fill="none" stroke="red" stroke-width="2"/><path d="M 594 540 L 592 542 L 592 544 L 593 545 L 593 546 L 597 546 L 598 545 L 598 541 L 597 540 L 596 540 L 598 542 L 598 545 L 597 546 L 594 546 L 592 544 L 592 542" fill="none" stroke="red" stroke-width="2"/><path d="M 591 539 L 591 540 L 590 541 L 590 542 L 589 543 L 589 544 L 590 545 L 590 546 L 591 547 L 591 548 L 593 548 L 592 548 L 590 546 L 590 545 L 589 544 L 589 543 L 590 542 L 590 541 L 591 540" fill="none" stroke="red" stroke-width="2"/><path d="M 595 537 L 594 538 L 593 538 L 594 538 L 595 537 L 596 538 L 598 538 L 600 540 L 600 541 L 600 539 L 599 539 L 598 538 L 596 538" fill="none" stroke="red" stroke-width="2"/><path d="M 952 524 L 952 525 L 957 525 L 953 525" fill="none" stroke="red" stroke-width="2"/><path d="M 959 523 L 959 524" fill="none" stroke="red" stroke-width="2"/><path d="M 953 517 L 952 518 L 952 519 L 954 517 L 956 517 L 957 518 L 957 522 L 956 523 L 954 523 L 952 521 L 952 522 L 953 522 L 954 523 L 956 523 L 957 522 L 957 518 L 956 517" fill="none" stroke="red" stroke-width="2"/><path d="M 702 517 L 701 518 L 700 518 L 700 519 L 699 520 L 699 521 L 700 522 L 700 523 L 705 523 L 705 518 L 704 518 L 703 517" fill="none" stroke="red" stroke-width="2"/><path d="M 470 515 L 469 516" fill="none" stroke="red" stroke-width="2"/><path d="M 949 514 L 948 515 L 949 516 L 949 521 L 950 522 L 950 524 L 950 522 L 949 521 L 949 516 L 950 515 L 953 515 L 954 514 L 956 514 L 959 517 L 959 516 L 958 515 L 957 515 L 956 514 L 954 514 L 953 515 L 950 515" fill="none" stroke="red" stroke-width="2"/><path d="M 946 513 L 947 513" fill="none" stroke="red" stroke-width="2"/><path d="M 787 513 L 787 514 L 785 516 L 784 516 L 786 516 L 787 515" fill="none" stroke="red" stroke-width="2"/><path d="M 469 513 L 467 515 L 467 516 L 467 515 L 469 513 L 470 513" fill="none" stroke="red" stroke-width="2"/><path d="M 947 511" fill="none" stroke="red" stroke-width="2"/><path d="M 782 508 L 781 509 L 780 509 L 780 510 L 779 511 L 780 512 L 780 513 L 781 514 L 784 514 L 785 513 L 785 509 L 784 509 L 783 508" fill="none" stroke="red" stroke-width="2"/><path d="M 1141 506 L 1140 507 L 1140 508 L 1142 508 L 1142 506" fill="none" stroke="red" stroke-width="2"/><path d="M 1138 503 L 1138 505 L 1139 505 L 1140 504 L 1140 503" fill="none" stroke="red" stroke-width="2"/><path d="M 480 495 L 479 496 L 478 496 L 476 498 L 476 499 L 475 500 L 475 503 L 476 504 L 476 505 L 477 506 L 477 507 L 477 505 L 475 503 L 475 500 L 480 495 L 482 495 L 483 496 L 484 496 L 487 499 L 487 503 L 486 504 L 486 505 L 484 507 L 480 507 L 479 508 L 479 510 L 480 510 L 481 511 L 483 511 L 481 511 L 479 509 L 479 508 L 480 507 L 482 507 L 484 509 L 486 509 L 489 506 L 489 505 L 492 502 L 491 502 L 490 503 L 490 504 L 485 509 L 484 509 L 483 508 L 486 505 L 486 504 L 487 503 L 487 499 L 486 498 L 486 497 L 485 497 L 484 496 L 483 496 L 482 495" fill="none" stroke="red" stroke-width="2"/><path d="M 1123 487 L 1122 488 L 1122 489 L 1124 489 L 1124 487" fill="none" stroke="red" stroke-width="2"/><path d="M 1121 486" fill="none" stroke="red" stroke-width="2"/><path d="M 535 477 L 519 493 L 519 494 L 512 501 L 511 501 L 510 502 L 504 502 L 511 502 L 536 477" fill="none" stroke="red" stroke-width="2"/><path d="M 1107 474 L 1119 486" fill="none" stroke="red" stroke-width="2"/><path d="M 857 472 L 856 473 L 855 473 L 855 474 L 854 475 L 855 476 L 855 477 L 856 478 L 859 478 L 860 477 L 860 473 L 859 473 L 858 472" fill="none" stroke="red" stroke-width="2"/><path d="M 1106 469 L 1106 470 L 1107 471 L 1108 471 L 1121 484 L 1108 471 L 1107 471 L 1106 470" fill="none" stroke="red" stroke-width="2"/><path d="M 354 468 L 354 470 L 356 470 L 356 468" fill="none" stroke="red" stroke-width="2"/><path d="M 407 465 L 405 467 L 360 467 L 359 468 L 360 469 L 371 469 L 360 469 L 359 468 L 360 467 L 401 467 L 402 468 L 401 469 L 399 469 L 405 469 L 404 468" fill="none" stroke="red" stroke-width="2"/><path d="M 409 463" fill="none" stroke="red" stroke-width="2"/><path d="M 301 456" fill="none" stroke="red" stroke-width="2"/><path d="M 295 456 L 299 456" fill="none" stroke="red" stroke-width="2"/><path d="M 424 451 L 408 467" fill="none" stroke="red" stroke-width="2"/><path d="M 293 451 L 295 453 L 295 454 L 295 453" fill="none" stroke="red" stroke-width="2"/><path d="M 1186 446 L 1186 448 L 1188 448 L 1188 446" fill="none" stroke="red" stroke-width="2"/><path d="M 1161 441 L 1160 442 L 1161 443 L 1172 443 L 1161 443 L 1160 442 L 1161 441 L 1172 441" fill="none" stroke="red" stroke-width="2"/><path d="M 1149 441 L 1148 442 L 1146 442 L 1145 443 L 1146 444 L 1148 444 L 1146 444 L 1145 443 L 1146 442 L 1148 442 L 1149 441 L 1150 441 L 1151 442 L 1150 443 L 1151 443 L 1151 441" fill="none" stroke="red" stroke-width="2"/><path d="M 1144 441" fill="none" stroke="red" stroke-width="2"/><path d="M 301 440 L 299 442 L 296 442 L 293 445 L 293 447 L 293 445 L 296 442 L 299 442 L 300 441 L 301 441" fill="none" stroke="red" stroke-width="2"/><path d="M 315 439" fill="none" stroke="red" stroke-width="2"/><path d="M 313 439" fill="none" stroke="red" stroke-width="2"/><path d="M 297 438 L 295 440 L 294 440 L 291 443 L 291 444 L 290 445 L 290 449 L 291 450 L 291 452 L 292 453 L 291 452 L 291 450 L 290 449 L 290 445 L 292 443 L 292 442 L 293 441 L 294 441 L 297 438 L 302 438 L 304 440 L 303 441 L 303 443 L 304 444 L 304 445 L 305 446 L 305 450 L 301 454 L 297 454 L 301 454 L 303 452 L 304 452 L 304 451 L 305 450 L 305 446 L 304 445 L 304 443 L 303 442 L 303 441 L 304 440 L 309 445 L 309 446 L 308 447 L 308 451 L 305 454 L 304 454 L 306 454 L 307 453 L 307 452 L 308 451 L 308 447 L 309 446 L 309 444 L 305 440 L 304 440 L 302 438" fill="none" stroke="red" stroke-width="2"/><path d="M 1190 437 L 1189 438 L 1186 438 L 1186 440 L 1190 440 L 1191 439 L 1192 439 L 1192 437" fill="none" stroke="red" stroke-width="2"/><path d="M 318 434 L 315 437" fill="none" stroke="red" stroke-width="2"/><path d="M 922 430 L 921 431 L 920 431 L 919 432 L 919 435 L 920 436 L 923 436 L 924 435 L 924 431 L 923 431" fill="none" stroke="red" stroke-width="2"/><path d="M 272 423" fill="none" stroke="red" stroke-width="2"/><path d="M 242 423 L 270 423" fill="none" stroke="red" stroke-width="2"/><path d="M 242 421 L 271 421" fill="none" stroke="red" stroke-width="2"/><path d="M 238 421 L 238 423 L 240 423 L 240 421" fill="none" stroke="red" stroke-width="2"/><path d="M 230 421 L 229 422 L 230 423 L 234 423 L 233 422 L 234 421" fill="none" stroke="red" stroke-width="2"/><path d="M 683 394 L 681 396 L 681 397 L 636 442 L 636 443 L 626 453 L 625 453 L 624 454 L 624 457 L 628 457 L 628 456 L 644 440 L 644 439 L 684 399 L 685 399 L 686 398 L 686 394" fill="none" stroke="red" stroke-width="2"/><path d="M 1138 393 L 1138 394 L 1139 395 L 1139 396 L 1140 397 L 1142 397 L 1141 397 L 1138 394" fill="none" stroke="red" stroke-width="2"/><path d="M 1144 389 L 1143 390 L 1142 390 L 1141 391 L 1141 394 L 1142 395 L 1146 395 L 1146 394 L 1147 393 L 1147 391 L 1146 390 L 1145 390" fill="none" stroke="red" stroke-width="2"/><path d="M 244 389 L 246 389" fill="none" stroke="red" stroke-width="2"/><path d="M 171 387 L 170 388 L 171 389 L 174 389 L 174 387" fill="none" stroke="red" stroke-width="2"/><path d="M 165 387 L 165 389 L 167 389 L 167 387" fill="none" stroke="red" stroke-width="2"/><path d="M 752 378 L 751 379 L 751 468 L 752 469 L 752 470 L 763 481 L 764 481 L 766 483 L 766 484 L 767 485 L 768 485 L 770 487 L 770 488 L 774 492 L 775 492 L 778 495 L 778 496 L 780 498 L 780 505 L 777 508 L 777 509 L 776 510 L 776 512 L 777 513 L 777 514 L 779 516 L 781 516 L 779 516 L 777 514 L 777 513 L 776 512 L 776 510 L 780 506 L 780 497 L 751 468 L 751 379 L 752 378 L 753 378 L 754 379 L 754 467 L 755 468 L 755 469 L 757 471 L 758 471 L 771 484 L 771 485 L 777 491 L 778 491 L 779 492 L 779 493 L 783 497 L 783 504 L 787 508 L 787 509 L 787 507 L 786 506 L 785 506 L 783 504 L 783 496 L 770 483 L 770 482 L 760 472 L 759 472 L 754 467 L 754 378" fill="none" stroke="red" stroke-width="2"/><path d="M 276 375 L 262 389 L 261 389 L 262 389" fill="none" stroke="red" stroke-width="2"/><path d="M 275 372 L 260 387 L 177 387 L 177 389 L 241 389 L 181 389 L 180 388 L 181 387 L 260 387" fill="none" stroke="red" stroke-width="2"/><path d="M 1188 370" fill="none" stroke="red" stroke-width="2"/><path d="M 277 369 L 276 370" fill="none" stroke="red" stroke-width="2"/><path d="M 1276 368 L 1276 372" fill="none" stroke="red" stroke-width="2"/><path d="M 770 368 L 770 369 L 769 370 L 769 412 L 770 413 L 770 414 L 771 415 L 773 415 L 773 368" fill="none" stroke="red" stroke-width="2"/><path d="M 279 368" fill="none" stroke="red" stroke-width="2"/><path d="M 828 345 L 827 346 L 809 346 L 808 347 L 807 347 L 802 352 L 802 353 L 801 354 L 801 387 L 802 388 L 802 391 L 803 392 L 803 393 L 812 402 L 835 402 L 944 511 L 914 481 L 914 480 L 837 403 L 836 403 L 835 402 L 813 402 L 802 391 L 802 388 L 801 387 L 801 354 L 809 346 L 827 346 L 828 345 L 846 345 L 855 354 L 855 378 L 856 379 L 856 380 L 906 430 L 906 431 L 916 431 L 919 428 L 920 428 L 921 427 L 922 427 L 923 428 L 924 428 L 927 431 L 927 436 L 924 439 L 919 439 L 916 436 L 916 435 L 915 435 L 914 434 L 906 434 L 878 406 L 878 405 L 876 403 L 875 403 L 854 382 L 854 381 L 852 379 L 852 374 L 851 373 L 851 354 L 847 350 L 846 350 L 845 349 L 811 349 L 810 350 L 809 350 L 806 353 L 806 354 L 805 355 L 805 389 L 806 390 L 806 391 L 814 399 L 837 399 L 866 428 L 866 429 L 945 508 L 913 476 L 913 475 L 865 427 L 865 426 L 839 400 L 838 400 L 837 399 L 815 399 L 805 389 L 805 355 L 811 349 L 845 349 L 851 355 L 851 373 L 852 374 L 852 380 L 857 385 L 857 386 L 873 402 L 874 402 L 879 407 L 879 408 L 905 434 L 914 434 L 917 437 L 917 438 L 918 438 L 919 439 L 924 439 L 925 438 L 926 438 L 927 437 L 927 431 L 926 430 L 926 429 L 925 429 L 924 428 L 923 428 L 922 427 L 921 427 L 920 428 L 919 428 L 918 429 L 917 429 L 917 430 L 916 431 L 907 431 L 905 429 L 905 428 L 903 426 L 902 426 L 900 424 L 900 423 L 899 423 L 897 421 L 897 420 L 855 378 L 855 353 L 848 346 L 847 346 L 846 345" fill="none" stroke="red" stroke-width="2"/><path d="M 150 341 L 149 342 L 150 343 L 151 343 L 150 343 L 149 342 L 150 341 L 151 341" fill="none" stroke="red" stroke-width="2"/><path d="M 1090 340 L 1089 341 L 1089 343 L 1098 352 L 1099 352 L 1101 354 L 1101 355 L 1102 356 L 1103 356 L 1137 390 L 1139 390 L 1142 387 L 1143 387 L 1144 386 L 1145 387 L 1146 387 L 1149 390 L 1149 395 L 1147 397 L 1146 397 L 1148 397 L 1148 396 L 1149 395 L 1149 389 L 1148 388 L 1147 388 L 1146 387 L 1145 387 L 1144 386 L 1143 387 L 1142 387 L 1141 388 L 1140 388 L 1138 390 L 1137 390 L 1089 342 L 1089 341 L 1090 340 L 1121 340 L 1151 370 L 1156 370 L 1152 370 L 1151 369 L 1150 369 L 1121 340" fill="none" stroke="red" stroke-width="2"/><path d="M 733 339 L 734 339" fill="none" stroke="red" stroke-width="2"/><path d="M 737 338 L 738 339 L 737 340 L 736 340 L 738 340 L 738 338" fill="none" stroke="red" stroke-width="2"/><path d="M 147 338 L 147 340 L 148 340 L 149 339 L 149 338" fill="none" stroke="red" stroke-width="2"/><path d="M 757 336" fill="none" stroke="red" stroke-width="2"/><path d="M 735 336 L 734 337 L 733 337 L 734 337" fill="none" stroke="red" stroke-width="2"/><path d="M 721 336 L 720 337 L 720 376 L 719 377 L 719 401 L 718 402 L 717 402 L 716 401 L 716 340 L 715 340 L 714 339 L 713 340 L 712 340 L 711 339 L 711 338 L 709 338 L 708 339 L 707 339 L 705 337 L 704 337 L 702 339 L 702 340 L 701 341 L 701 404 L 671 434 L 671 435 L 670 436 L 670 469 L 654 485 L 654 486 L 609 531 L 614 526 L 615 526 L 618 523 L 618 522 L 670 470 L 670 436 L 701 405 L 701 341 L 702 340 L 702 339 L 704 337 L 705 338 L 706 338 L 707 339 L 709 339 L 710 338 L 711 339 L 711 340 L 710 341 L 711 340 L 712 340 L 713 341 L 713 340 L 714 339 L 716 341 L 716 401 L 717 402 L 719 402 L 719 377 L 720 376 L 720 337 L 721 336 L 722 337 L 722 339 L 724 339 L 725 338 L 727 340 L 727 353 L 728 354 L 728 355 L 737 364 L 737 365 L 738 366 L 738 367 L 736 369 L 736 370 L 735 371 L 735 372 L 734 373 L 734 411 L 732 413 L 732 414 L 731 415 L 731 487 L 724 494 L 724 495 L 707 512 L 707 513 L 706 514 L 702 514 L 701 515 L 700 515 L 699 516 L 698 516 L 698 517 L 697 518 L 697 519 L 696 520 L 696 521 L 697 522 L 697 523 L 698 524 L 698 525 L 699 525 L 700 526 L 705 526 L 707 524 L 707 523 L 707 524 L 705 526 L 700 526 L 697 523 L 697 522 L 696 521 L 696 520 L 697 519 L 697 518 L 700 515 L 701 515 L 702 514 L 706 514 L 707 513 L 707 512 L 709 510 L 710 510 L 712 508 L 712 507 L 713 506 L 714 506 L 715 505 L 715 504 L 731 488 L 731 415 L 734 412 L 734 373 L 735 372 L 735 371 L 738 368 L 738 365 L 736 363 L 736 362 L 727 353 L 727 339 L 726 339 L 725 338 L 724 339 L 723 339 L 722 338 L 722 337" fill="none" stroke="red" stroke-width="2"/><path d="M 162 336 L 162 338 L 161 339 L 161 341 L 163 341 L 163 340 L 162 341 L 161 340 L 161 339 L 162 338 L 164 338 L 164 336" fill="none" stroke="red" stroke-width="2"/><path d="M 148 335 L 149 335" fill="none" stroke="red" stroke-width="2"/><path d="M 146 335" fill="none" stroke="red" stroke-width="2"/><path d="M 749 334 L 748 335" fill="none" stroke="red" stroke-width="2"/><path d="M 683 334 L 683 336 L 684 337 L 683 338 L 683 345 L 684 346 L 684 349 L 683 350 L 680 350 L 678 352 L 678 353 L 677 354 L 677 368 L 673 372 L 673 373 L 647 399 L 621 399 L 620 400 L 619 400 L 618 401 L 618 402 L 616 404 L 616 405 L 615 406 L 615 427 L 614 428 L 614 429 L 609 434 L 609 435 L 607 437 L 602 437 L 601 438 L 600 438 L 562 476 L 561 476 L 563 476 L 602 437 L 607 437 L 613 431 L 613 430 L 615 428 L 615 406 L 617 404 L 617 403 L 621 399 L 647 399 L 648 398 L 649 398 L 664 383 L 664 382 L 666 380 L 667 380 L 672 375 L 672 374 L 677 369 L 677 354 L 678 353 L 678 352 L 680 350 L 684 350 L 684 346 L 683 345 L 683 338 L 686 335 L 687 336 L 688 336 L 689 337 L 691 337 L 693 339 L 695 339 L 696 338 L 696 337 L 697 336 L 698 337 L 698 339 L 697 340 L 697 374 L 698 375 L 698 402 L 687 413 L 687 414 L 668 433 L 668 434 L 667 435 L 667 468 L 653 482 L 653 483 L 609 527 L 609 528 L 607 530 L 607 531 L 607 530 L 617 520 L 617 519 L 667 469 L 667 435 L 686 416 L 686 415 L 698 403 L 698 375 L 697 374 L 697 340 L 698 339 L 698 337 L 697 336 L 696 337 L 696 338 L 695 339 L 694 339 L 693 338 L 692 338 L 691 337 L 689 337 L 687 335 L 686 335 L 685 334" fill="none" stroke="red" stroke-width="2"/><path d="M 148 333 L 149 333" fill="none" stroke="red" stroke-width="2"/><path d="M 732 330 L 731 331 L 731 351 L 732 352 L 732 353 L 736 357 L 736 358 L 741 363 L 741 364 L 742 365 L 742 369 L 739 372 L 739 373 L 738 374 L 738 411 L 736 413 L 736 414 L 735 415 L 735 416 L 734 417 L 734 488 L 725 497 L 725 498 L 708 515 L 708 516 L 707 517 L 707 518 L 707 517 L 708 516 L 708 515 L 712 511 L 713 511 L 713 510 L 734 489 L 734 417 L 735 416 L 735 415 L 738 412 L 738 374 L 741 371 L 741 370 L 742 369 L 742 364 L 740 362 L 740 361 L 735 356 L 735 355 L 731 351 L 731 331 L 732 330 L 733 331 L 733 332 L 734 333 L 734 334 L 734 333 L 735 332 L 739 332 L 740 333 L 739 334 L 740 333 L 741 333 L 742 334 L 742 335 L 741 336 L 742 335 L 743 335 L 744 336 L 744 337 L 746 339 L 746 350 L 747 351 L 747 352 L 753 358 L 753 359 L 754 360 L 757 360 L 758 359 L 758 357 L 757 356 L 757 355 L 750 348 L 750 337 L 751 336 L 755 336 L 755 335 L 756 334 L 758 334 L 759 335 L 759 336 L 760 335 L 762 337 L 762 338 L 787 363 L 787 431 L 788 432 L 788 433 L 791 436 L 791 437 L 797 443 L 797 464 L 798 465 L 798 466 L 808 476 L 850 476 L 854 480 L 856 480 L 855 480 L 852 477 L 851 477 L 850 476 L 809 476 L 797 464 L 797 442 L 790 435 L 790 434 L 787 431 L 787 362 L 760 335 L 759 335 L 758 334 L 756 334 L 754 336 L 751 336 L 750 337 L 749 337 L 750 338 L 750 348 L 751 349 L 751 350 L 758 357 L 758 358 L 756 360 L 755 360 L 752 357 L 752 356 L 746 350 L 746 338 L 740 332 L 735 332 L 734 333 L 733 332 L 733 331" fill="none" stroke="red" stroke-width="2"/><path d="M 676 330 L 677 331 L 678 331 L 679 332 L 679 345 L 674 350 L 674 351 L 673 352 L 673 367 L 671 369 L 671 370 L 645 396 L 620 396 L 619 397 L 618 397 L 614 401 L 614 402 L 613 403 L 613 404 L 612 405 L 612 426 L 611 427 L 611 428 L 605 434 L 600 434 L 599 435 L 598 435 L 596 437 L 596 438 L 560 474 L 535 474 L 534 475 L 533 475 L 518 490 L 518 491 L 510 499 L 491 499 L 489 497 L 489 496 L 486 493 L 485 493 L 484 492 L 478 492 L 477 493 L 476 493 L 473 496 L 473 497 L 472 498 L 472 500 L 471 501 L 472 502 L 472 504 L 473 505 L 473 506 L 474 507 L 474 508 L 475 509 L 475 508 L 473 506 L 473 505 L 472 504 L 472 502 L 471 501 L 472 500 L 472 498 L 478 492 L 484 492 L 490 498 L 490 499 L 510 499 L 535 474 L 561 474 L 595 440 L 595 439 L 600 434 L 606 434 L 610 430 L 610 429 L 612 427 L 612 405 L 613 404 L 613 403 L 620 396 L 646 396 L 670 372 L 670 371 L 673 368 L 673 352 L 679 346 L 679 331 L 678 331 L 677 330" fill="none" stroke="red" stroke-width="2"/><path d="M 670 328 L 671 329 L 670 330 L 671 329 L 672 329 L 674 331 L 672 329 L 671 329" fill="none" stroke="red" stroke-width="2"/><path d="M 787 325 L 786 326 L 785 326 L 782 329 L 782 330 L 781 331 L 781 332 L 782 333 L 782 334 L 783 335 L 783 336 L 784 337 L 791 337 L 792 336 L 793 336 L 793 328 L 792 327 L 791 327 L 790 326 L 789 326 L 788 325" fill="none" stroke="red" stroke-width="2"/><path d="M 1295 324 L 1295 326" fill="none" stroke="red" stroke-width="2"/><path d="M 1226 324 L 1227 324" fill="none" stroke="red" stroke-width="2"/><path d="M 662 323 L 664 323 L 666 325 L 666 326 L 670 326 L 667 326 L 664 323" fill="none" stroke="red" stroke-width="2"/><path d="M 1293 322 L 1292 323 L 1293 324 L 1293 327 L 1294 328 L 1293 327 L 1293 324 L 1292 323" fill="none" stroke="red" stroke-width="2"/><path d="M 766 322 L 765 323 L 765 324 L 765 323 L 766 322 L 767 323 L 767 324 L 767 323" fill="none" stroke="red" stroke-width="2"/><path d="M 1168 320 L 1172 324 L 1177 324 L 1178 323 L 1179 323 L 1179 321 L 1179 322 L 1177 324 L 1172 324 L 1170 322 L 1170 321 L 1169 320" fill="none" stroke="red" stroke-width="2"/><path d="M 662 320 L 656 326 L 656 327 L 655 328 L 655 345 L 649 351 L 649 352 L 645 356 L 644 356 L 643 357 L 643 358 L 579 422 L 529 422 L 528 423 L 527 423 L 518 432 L 518 433 L 515 436 L 514 436 L 514 437 L 501 450 L 500 450 L 499 451 L 464 451 L 500 451 L 507 444 L 508 444 L 513 439 L 513 438 L 516 435 L 517 435 L 517 434 L 529 422 L 580 422 L 642 360 L 642 359 L 646 355 L 647 355 L 648 354 L 648 353 L 655 346 L 655 328 L 660 323 L 660 322 L 662 320 L 663 321" fill="none" stroke="red" stroke-width="2"/><path d="M 1077 319 L 1079 319" fill="none" stroke="red" stroke-width="2"/><path d="M 1031 319 L 1074 319" fill="none" stroke="red" stroke-width="2"/><path d="M 780 318 L 780 320 L 776 324 L 775 324 L 775 325 L 774 326 L 771 326 L 771 329 L 770 330 L 769 329 L 770 330 L 769 331 L 768 331 L 767 332 L 766 332 L 766 335 L 767 336 L 767 337 L 774 344 L 774 345 L 790 361 L 790 430 L 791 431 L 791 432 L 797 438 L 797 439 L 800 442 L 800 463 L 801 464 L 801 465 L 809 473 L 852 473 L 856 469 L 858 469 L 859 470 L 860 470 L 862 472 L 862 473 L 863 474 L 863 476 L 862 477 L 862 478 L 860 480 L 859 480 L 861 480 L 862 479 L 862 477 L 863 476 L 863 474 L 862 473 L 862 471 L 861 471 L 860 470 L 859 470 L 858 469 L 856 469 L 855 470 L 854 470 L 851 473 L 810 473 L 800 463 L 800 441 L 796 437 L 796 436 L 790 430 L 790 360 L 773 343 L 773 342 L 766 335 L 766 333 L 768 331 L 769 331 L 770 330 L 771 330 L 771 327 L 772 326 L 774 326 L 780 320 L 780 319 L 781 318 L 806 318 L 813 325 L 813 326 L 820 333 L 821 333 L 822 334 L 830 334 L 831 333 L 880 333 L 895 348 L 895 349 L 902 356 L 932 356 L 982 406 L 982 407 L 984 409 L 985 409 L 987 411 L 987 412 L 995 420 L 1032 420 L 1077 465 L 1077 466 L 1079 466 L 1078 466 L 1060 448 L 1060 447 L 1034 421 L 1033 421 L 1032 420 L 996 420 L 981 405 L 981 404 L 980 403 L 979 403 L 975 399 L 975 398 L 934 357 L 933 357 L 932 356 L 903 356 L 894 347 L 894 346 L 882 334 L 881 334 L 880 333 L 831 333 L 830 334 L 822 334 L 812 324 L 812 323 L 808 319 L 807 319 L 806 318" fill="none" stroke="red" stroke-width="2"/><path d="M 766 318 L 765 319 L 766 320 L 767 320 L 766 320 L 765 319 L 766 318 L 767 318" fill="none" stroke="red" stroke-width="2"/><path d="M 657 318 L 656 319 L 656 320 L 652 324 L 652 325 L 651 326 L 651 344 L 641 354 L 641 355 L 585 411 L 585 412 L 578 419 L 528 419 L 527 420 L 526 420 L 507 439 L 507 440 L 499 448 L 424 448 L 423 449 L 422 449 L 410 461 L 422 449 L 423 449 L 424 448 L 499 448 L 504 443 L 505 443 L 506 442 L 506 441 L 528 419 L 579 419 L 584 414 L 584 413 L 640 357 L 640 356 L 651 345 L 651 326 L 655 322 L 655 321 L 658 318" fill="none" stroke="red" stroke-width="2"/><path d="M 663 317 L 663 318 L 664 319 L 665 319 L 665 317" fill="none" stroke="red" stroke-width="2"/><path d="M 583 317 L 582 318 L 582 319 L 570 331 L 570 332 L 538 364 L 515 364 L 514 365 L 513 365 L 512 366 L 512 367 L 481 398 L 480 398 L 479 399 L 479 400 L 478 401 L 479 402 L 483 402 L 483 401 L 485 399 L 486 399 L 498 387 L 498 386 L 516 368 L 539 368 L 540 367 L 541 367 L 549 359 L 549 358 L 586 321 L 586 317" fill="none" stroke="red" stroke-width="2"/><path d="M 1175 315 L 1174 316 L 1173 316 L 1172 317 L 1172 320 L 1173 321 L 1177 321 L 1177 316 L 1176 316" fill="none" stroke="red" stroke-width="2"/><path d="M 657 313 L 657 316 L 658 316 L 657 315" fill="none" stroke="red" stroke-width="2"/><path d="M 613 313 L 612 314 L 611 314 L 611 315 L 603 323 L 603 324 L 528 399 L 498 399 L 497 400 L 496 400 L 484 412 L 484 413 L 481 416 L 416 416 L 413 413 L 412 413 L 411 412 L 407 412 L 406 413 L 405 413 L 405 414 L 404 415 L 404 416 L 403 417 L 403 419 L 404 420 L 404 421 L 406 423 L 412 423 L 413 422 L 414 422 L 414 421 L 416 419 L 483 419 L 483 418 L 499 402 L 530 402 L 578 354 L 579 354 L 590 343 L 590 342 L 593 339 L 594 339 L 594 338 L 596 336 L 597 336 L 615 318 L 615 314 L 614 314" fill="none" stroke="red" stroke-width="2"/><path d="M 565 313 L 564 314 L 563 314 L 563 315 L 539 339 L 506 339 L 505 340 L 504 340 L 483 361 L 483 362 L 478 367 L 384 367 L 383 368 L 382 368 L 382 369 L 340 411 L 340 412 L 320 432 L 320 433 L 321 434 L 321 435 L 318 438 L 321 435 L 321 434 L 323 432 L 324 432 L 379 377 L 379 376 L 385 370 L 480 370 L 504 346 L 504 345 L 507 342 L 541 342 L 553 330 L 554 330 L 567 317 L 567 314 L 566 313" fill="none" stroke="red" stroke-width="2"/><path d="M 790 310 L 790 311 L 792 313 L 794 313 L 795 314 L 808 314 L 810 316 L 810 317 L 820 327 L 820 328 L 822 330 L 882 330 L 890 338 L 890 339 L 903 352 L 930 352 L 931 353 L 933 353 L 989 409 L 989 410 L 996 417 L 1033 417 L 1078 462 L 1078 463 L 1079 464 L 1099 464 L 1100 465 L 1101 465 L 1104 468 L 1104 469 L 1103 470 L 1102 470 L 1099 467 L 1102 470 L 1103 470 L 1104 471 L 1104 472 L 1104 471 L 1103 470 L 1104 469 L 1104 468 L 1101 465 L 1100 465 L 1099 464 L 1080 464 L 1061 445 L 1061 444 L 1035 418 L 1034 418 L 1033 417 L 997 417 L 988 408 L 988 407 L 935 354 L 934 354 L 933 353 L 931 353 L 930 352 L 904 352 L 889 337 L 889 336 L 884 331 L 883 331 L 882 330 L 823 330 L 819 326 L 819 325 L 808 314 L 795 314 L 794 313 L 793 313 L 792 312 L 791 312 L 790 311 L 791 310 L 793 310" fill="none" stroke="red" stroke-width="2"/><path d="M 657 306 L 656 307 L 656 311 L 655 312 L 655 313 L 654 314 L 655 313 L 655 312 L 656 311 L 656 307" fill="none" stroke="red" stroke-width="2"/><path d="M 1206 304 L 1208 306 L 1209 306 L 1218 315 L 1218 316 L 1223 321 L 1224 321 L 1225 322 L 1207 304" fill="none" stroke="red" stroke-width="2"/><path d="M 1201 303 L 1202 303" fill="none" stroke="red" stroke-width="2"/><path d="M 1259 301 L 1258 302 L 1256 302 L 1258 302 L 1259 303 L 1258 304 L 1256 304 L 1258 304 L 1259 303 L 1264 303 L 1259 303 L 1258 302 L 1259 301 L 1284 301 L 1285 302 L 1284 303 L 1280 303 L 1285 303 L 1285 301" fill="none" stroke="red" stroke-width="2"/><path d="M 1043 299 L 1042 300 L 1041 300 L 1041 301 L 1040 302 L 1041 303 L 1041 304 L 1045 304 L 1045 300 L 1044 300" fill="none" stroke="red" stroke-width="2"/><path d="M 1042 296 L 1041 297 L 1040 297 L 1038 299 L 1038 300 L 1037 301 L 1037 303 L 1038 304 L 1038 305 L 1039 306 L 1040 306 L 1041 307 L 1046 307 L 1050 303 L 1172 303 L 1050 303 L 1049 304 L 1048 304 L 1045 307 L 1041 307 L 1037 303 L 1037 301 L 1038 300 L 1038 299 L 1040 297 L 1041 297 L 1042 296 L 1044 296 L 1048 300 L 1171 300 L 1172 301 L 1207 301 L 1211 305 L 1212 305 L 1215 308 L 1215 309 L 1228 322 L 1262 322 L 1263 323 L 1262 324 L 1245 324 L 1266 324 L 1266 322 L 1228 322 L 1225 319 L 1225 318 L 1208 301 L 1172 301 L 1171 300 L 1049 300 L 1046 297 L 1045 297 L 1044 296" fill="none" stroke="red" stroke-width="2"/><path d="M 805 291 L 805 292 L 804 293 L 805 293" fill="none" stroke="red" stroke-width="2"/><path d="M 652 291 L 651 292 L 651 295 L 652 296 L 652 297 L 651 298 L 652 297 L 653 298 L 653 299 L 652 300 L 648 300 L 647 301 L 646 301 L 644 303 L 644 304 L 640 308 L 640 309 L 634 315 L 634 316 L 626 324 L 626 325 L 605 346 L 605 347 L 583 369 L 583 370 L 561 392 L 561 393 L 551 403 L 550 403 L 549 404 L 548 404 L 548 405 L 547 406 L 548 407 L 548 408 L 552 408 L 552 407 L 571 388 L 571 387 L 603 355 L 603 354 L 633 324 L 633 323 L 642 314 L 642 313 L 646 309 L 646 308 L 650 304 L 657 304 L 650 304 L 649 305 L 648 305 L 647 306 L 647 307 L 643 311 L 643 312 L 634 321 L 634 322 L 604 352 L 604 353 L 572 385 L 572 386 L 553 405 L 553 406 L 551 408 L 549 408 L 547 406 L 550 403 L 551 403 L 552 402 L 553 402 L 560 395 L 560 394 L 582 372 L 582 371 L 604 349 L 604 348 L 625 327 L 625 326 L 633 318 L 633 317 L 639 311 L 639 310 L 643 306 L 643 305 L 648 300 L 653 300 L 653 297 L 651 295 L 651 292 L 652 291 L 653 291" fill="none" stroke="red" stroke-width="2"/><path d="M 633 288 L 632 289 L 631 289 L 619 301 L 496 301 L 495 302 L 494 302 L 457 339 L 457 340 L 455 342 L 361 342 L 356 347 L 355 347 L 352 350 L 352 351 L 312 391 L 312 392 L 297 407 L 296 407 L 296 408 L 345 359 L 345 358 L 347 356 L 348 356 L 351 353 L 351 352 L 357 346 L 358 346 L 359 345 L 359 344 L 361 342 L 456 342 L 456 341 L 496 301 L 620 301 L 633 288 L 646 288 L 647 289 L 653 289 L 647 289 L 646 288" fill="none" stroke="red" stroke-width="2"/><path d="M 797 284 L 797 285 L 796 286 L 797 287 L 799 287 L 799 284" fill="none" stroke="red" stroke-width="2"/><path d="M 673 277 L 672 278 L 671 278 L 665 284 L 631 284 L 630 285 L 629 285 L 620 294 L 620 295 L 618 297 L 551 297 L 550 298 L 494 298 L 493 299 L 492 299 L 489 302 L 489 303 L 453 339 L 360 339 L 359 340 L 358 340 L 351 347 L 351 348 L 311 388 L 311 389 L 293 407 L 292 407 L 292 408 L 287 413 L 288 414 L 290 414 L 293 411 L 293 410 L 294 409 L 293 410 L 293 411 L 290 414 L 288 414 L 287 413 L 350 350 L 350 349 L 360 339 L 454 339 L 488 305 L 488 304 L 494 298 L 550 298 L 551 297 L 619 297 L 619 296 L 631 284 L 666 284 L 673 277 L 683 277" fill="none" stroke="red" stroke-width="2"/><path d="M 1222 276 L 1223 277" fill="none" stroke="red" stroke-width="2"/><path d="M 1224 275 L 1242 293 L 1240 295 L 1239 294 L 1239 293 L 1229 283 L 1228 283 L 1224 279 L 1246 301 L 1242 297 L 1244 295 L 1251 302 L 1252 302 L 1253 303 L 1252 304 L 1250 304 L 1249 303 L 1250 304 L 1253 304 L 1253 302 L 1251 302 L 1240 291 L 1240 290 L 1239 290 L 1237 288 L 1237 287 L 1232 282 L 1231 282" fill="none" stroke="red" stroke-width="2"/><path d="M 825 274 L 824 275 L 782 275 L 781 276 L 782 277 L 787 277 L 788 278 L 787 279 L 788 280 L 788 283 L 793 283 L 797 279 L 799 279 L 804 284 L 804 287 L 803 288 L 803 289 L 802 290 L 802 291 L 801 292 L 802 293 L 802 295 L 800 297 L 799 297 L 798 298 L 799 299 L 800 299 L 799 299 L 798 298 L 799 297 L 801 297 L 802 298 L 818 298 L 828 308 L 896 308 L 898 310 L 898 311 L 915 328 L 940 328 L 975 363 L 1034 363 L 1049 378 L 1049 379 L 1052 382 L 1088 382 L 1127 421 L 1127 422 L 1142 437 L 1140 439 L 1131 430 L 1131 429 L 1100 398 L 1100 397 L 1089 386 L 1088 386 L 1087 385 L 1052 385 L 1046 379 L 1046 378 L 1035 367 L 1034 367 L 1033 366 L 975 366 L 973 364 L 972 364 L 968 360 L 968 359 L 942 333 L 941 333 L 940 332 L 939 332 L 938 331 L 914 331 L 902 319 L 902 318 L 896 312 L 895 312 L 894 311 L 862 311 L 861 312 L 827 312 L 818 303 L 817 303 L 816 302 L 807 302 L 806 303 L 790 303 L 789 304 L 790 305 L 791 305 L 792 306 L 792 308 L 793 308 L 792 307 L 792 305 L 790 305 L 789 304 L 790 303 L 806 303 L 807 302 L 816 302 L 825 311 L 826 311 L 827 312 L 861 312 L 862 311 L 894 311 L 903 320 L 903 321 L 913 331 L 938 331 L 939 332 L 940 332 L 969 361 L 969 362 L 970 363 L 971 363 L 974 366 L 1033 366 L 1048 381 L 1048 382 L 1051 385 L 1087 385 L 1126 424 L 1126 425 L 1142 441 L 1141 440 L 1141 439 L 1142 438 L 1143 438 L 1144 439 L 1132 427 L 1132 426 L 1101 395 L 1101 394 L 1090 383 L 1089 383 L 1088 382 L 1053 382 L 1047 376 L 1047 375 L 1036 364 L 1035 364 L 1034 363 L 976 363 L 942 329 L 941 329 L 940 328 L 916 328 L 896 308 L 829 308 L 820 299 L 819 299 L 818 298 L 802 298 L 801 297 L 801 296 L 802 295 L 802 293 L 801 292 L 803 290 L 803 288 L 804 287 L 804 284 L 803 283 L 803 282 L 801 280 L 800 280 L 799 279 L 797 279 L 796 280 L 795 280 L 792 283 L 789 283 L 788 282 L 788 280 L 787 279 L 788 278 L 791 278 L 791 277 L 790 278 L 788 278 L 787 277 L 786 277 L 785 276 L 786 275 L 824 275 L 825 274 L 832 274 L 833 275 L 834 275 L 839 280 L 839 281 L 849 291 L 930 291 L 944 305 L 945 305 L 961 321 L 994 321 L 999 326 L 999 327 L 1012 340 L 1082 340 L 1093 351 L 1094 351 L 1135 392 L 1136 392 L 1135 392 L 1084 341 L 1083 341 L 1082 340 L 1013 340 L 998 325 L 998 324 L 996 322 L 995 322 L 994 321 L 962 321 L 947 306 L 946 306 L 932 292 L 931 292 L 930 291 L 850 291 L 836 277 L 836 276 L 835 276 L 834 275 L 833 275 L 832 274" fill="none" stroke="red" stroke-width="2"/><path d="M 685 274 L 684 275 L 685 274 L 686 274" fill="none" stroke="red" stroke-width="2"/><path d="M 670 274 L 670 276 L 671 276 L 672 275 L 672 274" fill="none" stroke="red" stroke-width="2"/><path d="M 248 273 L 252 273" fill="none" stroke="red" stroke-width="2"/><path d="M 1155 272 L 1172 272" fill="none" stroke="red" stroke-width="2"/><path d="M 1151 272 L 1153 272" fill="none" stroke="red" stroke-width="2"/><path d="M 681 272 L 682 273 L 683 273 L 684 272 L 686 272 L 684 272 L 683 273 L 682 273" fill="none" stroke="red" stroke-width="2"/><path d="M 688 271 L 690 271 L 691 272 L 690 273 L 689 273 L 691 273 L 691 271" fill="none" stroke="red" stroke-width="2"/><path d="M 206 271 L 205 272 L 203 272 L 203 273 L 202 274 L 201 274 L 195 280 L 195 281 L 193 283 L 194 284 L 195 284 L 194 284 L 193 283 L 194 282 L 195 282 L 195 280 L 198 277 L 200 279 L 197 282 L 197 283 L 197 282 L 203 276 L 204 276 L 203 276 L 202 277 L 201 277 L 200 278 L 199 278 L 198 277 L 201 274 L 203 274 L 203 273 L 204 272 L 205 273 L 205 274 L 206 273 L 209 273 L 209 271" fill="none" stroke="red" stroke-width="2"/><path d="M 1255 270 L 1254 271 L 1255 272 L 1259 272 L 1259 270" fill="none" stroke="red" stroke-width="2"/><path d="M 782 270 L 781 271 L 780 271 L 779 272 L 779 273 L 776 276 L 771 276 L 770 275 L 769 275 L 769 276 L 768 277 L 766 277 L 765 276 L 766 275 L 767 275 L 764 275 L 763 276 L 763 277 L 768 277 L 770 275 L 771 276 L 777 276 L 778 275 L 778 274 L 782 270 L 828 270 L 829 271 L 835 271 L 849 285 L 849 286 L 850 287 L 894 287 L 895 288 L 932 288 L 962 318 L 995 318 L 1010 333 L 1010 334 L 1013 337 L 1121 337 L 1123 339 L 1124 339 L 1153 368 L 1270 368 L 1271 369 L 1270 370 L 1246 370 L 1273 370 L 1274 371 L 1274 372 L 1274 370 L 1273 369 L 1274 368 L 1274 367 L 1275 366 L 1276 366 L 1275 366 L 1273 368 L 1153 368 L 1123 338 L 1122 338 L 1121 337 L 1014 337 L 1009 332 L 1009 331 L 997 319 L 996 319 L 995 318 L 963 318 L 933 288 L 895 288 L 894 287 L 851 287 L 848 284 L 848 283 L 837 272 L 836 272 L 835 271 L 829 271 L 828 270" fill="none" stroke="red" stroke-width="2"/><path d="M 759 270 L 758 271 L 760 273 L 762 273 L 762 271 L 761 270" fill="none" stroke="red" stroke-width="2"/><path d="M 682 270" fill="none" stroke="red" stroke-width="2"/><path d="M 375 270 L 374 271 L 374 274 L 375 275 L 378 275 L 379 274 L 379 271 L 378 270" fill="none" stroke="red" stroke-width="2"/><path d="M 764 268 L 764 269 L 765 269 L 769 273 L 770 273 L 769 273 L 766 270 L 768 268 L 769 269 L 769 270 L 769 269 L 768 268 L 766 270" fill="none" stroke="red" stroke-width="2"/><path d="M 683 268" fill="none" stroke="red" stroke-width="2"/><path d="M 629 268 L 628 269 L 627 269 L 622 274 L 468 274 L 467 275 L 466 275 L 455 286 L 455 287 L 423 319 L 331 319 L 277 373 L 288 362 L 289 362 L 289 361 L 293 357 L 294 357 L 295 356 L 295 355 L 331 319 L 424 319 L 454 289 L 454 288 L 468 274 L 623 274 L 629 268 L 668 268 L 671 271 L 678 271 L 681 268 L 678 271 L 672 271 L 669 268" fill="none" stroke="red" stroke-width="2"/><path d="M 1281 267 L 1280 268 L 1280 269 L 1281 270 L 1281 274 L 1281 270 L 1280 269 L 1282 267 L 1283 268 L 1283 274 L 1283 267" fill="none" stroke="red" stroke-width="2"/><path d="M 716 265 L 717 265" fill="none" stroke="red" stroke-width="2"/><path d="M 673 263 L 673 264 L 672 265 L 673 266 L 673 267 L 675 267 L 676 266 L 676 263" fill="none" stroke="red" stroke-width="2"/><path d="M 741 262 L 741 264 L 743 264 L 743 263 L 742 264 L 741 263" fill="none" stroke="red" stroke-width="2"/><path d="M 734 262 L 734 264 L 736 264 L 736 262" fill="none" stroke="red" stroke-width="2"/><path d="M 716 262 L 714 264 L 714 265 L 714 264 L 716 262 L 717 262 L 719 264 L 719 265 L 719 264 L 717 262" fill="none" stroke="red" stroke-width="2"/><path d="M 730 261 L 728 263 L 725 263 L 724 264 L 724 265 L 724 264 L 725 263 L 728 263 L 730 261 L 731 261" fill="none" stroke="red" stroke-width="2"/><path d="M 708 261 L 709 261" fill="none" stroke="red" stroke-width="2"/><path d="M 723 259" fill="none" stroke="red" stroke-width="2"/><path d="M 771 258 L 770 259 L 769 259 L 767 261 L 767 263 L 768 264 L 768 265 L 769 266 L 773 266 L 775 264 L 825 264 L 826 263 L 828 263 L 829 264 L 836 264 L 837 263 L 883 263 L 894 274 L 981 274 L 1024 317 L 1024 318 L 1025 319 L 1026 319 L 1027 320 L 1029 320 L 1027 320 L 1023 316 L 1023 315 L 983 275 L 982 275 L 981 274 L 895 274 L 885 264 L 884 264 L 883 263 L 837 263 L 836 264 L 829 264 L 828 263 L 826 263 L 825 264 L 775 264 L 774 265 L 773 265 L 772 266 L 770 266 L 767 263 L 767 261 L 769 259 L 770 259 L 771 258 L 772 258 L 774 260 L 885 260 L 895 270 L 960 270 L 961 271 L 982 271 L 1026 315 L 1026 316 L 1027 316 L 1028 317 L 1031 317 L 1032 316 L 1033 317 L 1035 317 L 1036 316 L 1073 316 L 1074 317 L 1077 317 L 1078 316 L 1079 317 L 1169 317 L 1173 313 L 1177 313 L 1179 315 L 1179 316 L 1179 314 L 1178 314 L 1177 313 L 1173 313 L 1172 314 L 1171 314 L 1170 315 L 1170 316 L 1169 317 L 1079 317 L 1078 316 L 1077 317 L 1074 317 L 1073 316 L 1036 316 L 1035 317 L 1033 317 L 1032 316 L 1031 317 L 1028 317 L 1025 314 L 1025 313 L 984 272 L 983 272 L 982 271 L 961 271 L 960 270 L 896 270 L 887 261 L 886 261 L 885 260 L 775 260 L 774 259 L 773 259 L 772 258" fill="none" stroke="red" stroke-width="2"/><path d="M 728 258 L 728 259 L 729 258 L 738 258 L 739 259 L 740 259 L 741 260 L 743 260 L 745 258 L 746 259 L 746 260 L 747 259 L 748 260 L 748 262 L 747 263 L 748 264 L 751 264 L 752 263 L 753 263 L 754 262 L 755 263 L 760 263 L 762 265 L 762 266 L 764 266 L 763 266 L 760 263 L 755 263 L 754 262 L 753 263 L 752 263 L 751 262 L 751 261 L 750 261 L 752 263 L 751 264 L 748 264 L 747 263 L 748 262 L 748 259 L 746 259 L 745 258 L 743 260 L 741 260 L 740 259 L 739 259 L 738 258" fill="none" stroke="red" stroke-width="2"/><path d="M 204 254" fill="none" stroke="red" stroke-width="2"/><path d="M 187 254" fill="none" stroke="red" stroke-width="2"/><path d="M 441 252 L 390 303 L 304 303 L 303 304 L 302 304 L 298 308 L 298 309 L 270 337 L 269 337 L 271 337 L 271 336 L 304 303 L 391 303 L 439 255 L 439 254 L 441 252 L 683 252 L 684 253 L 687 253 L 688 254 L 688 255 L 690 257 L 694 257 L 695 258 L 694 259 L 693 259 L 693 262 L 690 265 L 689 265 L 688 266 L 686 266 L 685 265 L 683 265 L 681 263 L 681 262 L 678 259 L 677 259 L 676 258 L 674 258 L 673 259 L 672 259 L 671 260 L 670 260 L 669 261 L 669 262 L 668 263 L 663 263 L 662 264 L 628 264 L 627 265 L 626 265 L 621 270 L 604 270 L 603 271 L 466 271 L 465 272 L 464 272 L 463 273 L 463 274 L 430 307 L 430 308 L 422 316 L 331 316 L 330 317 L 329 317 L 280 366 L 285 361 L 286 361 L 294 353 L 294 352 L 328 318 L 329 318 L 331 316 L 423 316 L 429 310 L 429 309 L 462 276 L 462 275 L 466 271 L 603 271 L 604 270 L 622 270 L 628 264 L 662 264 L 663 263 L 668 263 L 672 259 L 673 259 L 674 258 L 676 258 L 682 264 L 682 266 L 683 265 L 685 265 L 686 266 L 688 266 L 689 265 L 691 265 L 692 264 L 692 263 L 693 262 L 693 260 L 694 259 L 695 259 L 695 257 L 691 257 L 687 253 L 684 253 L 683 252" fill="none" stroke="red" stroke-width="2"/><path d="M 189 252" fill="none" stroke="red" stroke-width="2"/><path d="M 206 251 L 205 252 L 200 252 L 199 253 L 200 254 L 201 254 L 200 254 L 199 253 L 200 252 L 205 252 L 206 251 L 226 251 L 227 252 L 226 253 L 224 253 L 230 253 L 228 253 L 227 252 L 227 251" fill="none" stroke="red" stroke-width="2"/><path d="M 232 250 L 231 251 L 230 251 L 231 251 L 232 250 L 233 251 L 234 251 L 236 253 L 236 254 L 239 257 L 237 259 L 234 256 L 234 255 L 233 254 L 234 255 L 234 256 L 248 270 L 247 271 L 214 271 L 213 272 L 214 273 L 229 273 L 218 273 L 217 272 L 218 271 L 248 271 L 248 270 L 239 261 L 241 259 L 250 268 L 250 269 L 252 271 L 371 271 L 372 270 L 372 269 L 374 267 L 378 267 L 382 271 L 382 275 L 379 278 L 374 278 L 371 275 L 371 274 L 370 274 L 372 276 L 372 277 L 373 277 L 374 278 L 379 278 L 380 277 L 381 277 L 381 276 L 382 275 L 382 270 L 380 268 L 379 268 L 378 267 L 374 267 L 370 271 L 253 271 L 236 254 L 236 253 L 234 251 L 233 251" fill="none" stroke="red" stroke-width="2"/><path d="M 692 249 L 692 250 L 691 251 L 692 252 L 695 252 L 695 249" fill="none" stroke="red" stroke-width="2"/><path d="M 715 247 L 715 250 L 718 250 L 718 247" fill="none" stroke="red" stroke-width="2"/><path d="M 693 244 L 692 245 L 691 245 L 690 246 L 689 246 L 688 247 L 688 248 L 687 249 L 685 249 L 684 248 L 664 248 L 663 249 L 440 249 L 439 250 L 438 250 L 415 273 L 415 274 L 389 300 L 303 300 L 302 301 L 301 301 L 297 305 L 297 306 L 268 335 L 182 335 L 182 337 L 229 337 L 196 337 L 195 336 L 196 335 L 269 335 L 270 334 L 270 333 L 303 300 L 390 300 L 414 276 L 414 275 L 440 249 L 663 249 L 664 248 L 684 248 L 685 249 L 687 249 L 691 245 L 692 245 L 693 244 L 694 244 L 695 245 L 696 245 L 699 248 L 699 256 L 701 258 L 701 260 L 703 260 L 703 259 L 704 258 L 706 260 L 706 263 L 705 264 L 696 264 L 696 266 L 707 266 L 700 266 L 699 265 L 700 264 L 705 264 L 706 263 L 706 260 L 704 258 L 703 258 L 703 259 L 702 260 L 701 259 L 701 257 L 703 255 L 703 254 L 702 254 L 703 255 L 701 257 L 699 255 L 699 247 L 698 246 L 697 246 L 696 245 L 695 245 L 694 244" fill="none" stroke="red" stroke-width="2"/><path d="M 981 234 L 980 235 L 979 235 L 977 237 L 977 239 L 978 240 L 978 241 L 983 241 L 984 240 L 984 236 L 983 235 L 982 235" fill="none" stroke="red" stroke-width="2"/><path d="M 1229 231 L 1236 231" fill="none" stroke="red" stroke-width="2"/><path d="M 1221 231 L 1223 231" fill="none" stroke="red" stroke-width="2"/><path d="M 979 231 L 978 232 L 977 232 L 975 234 L 975 235 L 974 236 L 974 237 L 973 238 L 974 239 L 974 240 L 975 241 L 975 242 L 977 244 L 979 244 L 980 245 L 982 245 L 983 244 L 985 244 L 986 243 L 986 242 L 989 239 L 1008 239 L 1016 247 L 1016 248 L 1040 272 L 1144 272 L 1041 272 L 1015 246 L 1015 245 L 1010 240 L 1009 240 L 1008 239 L 989 239 L 988 240 L 987 240 L 987 241 L 984 244 L 983 244 L 982 245 L 980 245 L 979 244 L 977 244 L 975 242 L 975 241 L 974 240 L 974 239 L 973 238 L 974 237 L 974 236 L 979 231 L 982 231 L 983 232 L 984 232 L 987 235 L 987 236 L 1009 236 L 1017 244 L 1017 245 L 1041 269 L 1220 269 L 1221 270 L 1221 271 L 1222 272 L 1222 273 L 1221 274 L 1220 274 L 1218 272 L 1220 274 L 1221 274 L 1223 272 L 1229 272 L 1222 272 L 1221 271 L 1222 270 L 1235 270 L 1236 271 L 1235 272 L 1232 272 L 1251 272 L 1251 270 L 1221 270 L 1220 269 L 1042 269 L 1016 243 L 1016 242 L 1011 237 L 1010 237 L 1009 236 L 988 236 L 986 234 L 986 233 L 985 233 L 984 232 L 983 232 L 982 231" fill="none" stroke="red" stroke-width="2"/><path d="M 201 230 L 200 231 L 201 232 L 210 232 L 227 249 L 228 249 L 229 248 L 230 248 L 212 230" fill="none" stroke="red" stroke-width="2"/><path d="M 1157 229 L 1156 230 L 1155 230 L 1152 233 L 1152 234 L 1137 249 L 1047 249 L 1046 248 L 1045 248 L 1044 247 L 1043 247 L 1042 248 L 1041 248 L 1041 249 L 1040 250 L 1040 251 L 1041 252 L 1041 253 L 1046 253 L 1047 252 L 1138 252 L 1158 232 L 1157 232 L 1153 236 L 1153 237 L 1139 251 L 1138 251 L 1137 252 L 1047 252 L 1046 253 L 1042 253 L 1040 251 L 1040 250 L 1043 247 L 1044 247 L 1046 249 L 1137 249 L 1157 229 L 1255 229 L 1256 230 L 1255 231 L 1238 231 L 1259 231 L 1259 229" fill="none" stroke="red" stroke-width="2"/><path d="M 274 224 L 273 225 L 272 225 L 271 226 L 270 226 L 270 227 L 268 229 L 268 230 L 267 231 L 267 236 L 268 237 L 268 238 L 269 239 L 269 240 L 271 242 L 273 242 L 274 243 L 280 243 L 281 242 L 282 242 L 283 241 L 284 241 L 284 240 L 285 239 L 285 237 L 287 235 L 406 235 L 412 229 L 412 228 L 413 227 L 413 225 L 412 224 L 411 224 L 403 232 L 292 232 L 291 233 L 289 233 L 288 232 L 287 232 L 285 230 L 285 229 L 284 228 L 284 227 L 283 226 L 282 226 L 281 225 L 280 225 L 279 224" fill="none" stroke="red" stroke-width="2"/><path d="M 899 220 L 898 221 L 897 221 L 895 223 L 895 224 L 894 225 L 894 226 L 895 227 L 895 228 L 896 229 L 902 229 L 903 228 L 903 223 L 901 221 L 900 221" fill="none" stroke="red" stroke-width="2"/><path d="M 701 212 L 699 214 L 700 215 L 700 216 L 704 216 L 704 213 L 703 212" fill="none" stroke="red" stroke-width="2"/><path d="M 775 209" fill="none" stroke="red" stroke-width="2"/><path d="M 1221 207 L 1222 207" fill="none" stroke="red" stroke-width="2"/><path d="M 1202 206" fill="none" stroke="red" stroke-width="2"/><path d="M 1221 205 L 1222 205" fill="none" stroke="red" stroke-width="2"/><path d="M 1216 205 L 1217 205 L 1218 206 L 1217 207 L 1216 207 L 1218 207 L 1218 205" fill="none" stroke="red" stroke-width="2"/><path d="M 1212 205 L 1212 207 L 1214 207 L 1214 205" fill="none" stroke="red" stroke-width="2"/><path d="M 1156 204 L 1155 205 L 1154 205 L 1149 210 L 1149 211 L 1125 235 L 1052 235 L 1040 223 L 1039 223 L 1037 225 L 1038 226 L 1038 227 L 1039 228 L 1040 228 L 1050 238 L 1127 238 L 1134 231 L 1134 230 L 1157 207 L 1156 207 L 1150 213 L 1150 214 L 1126 238 L 1051 238 L 1042 229 L 1041 229 L 1037 225 L 1039 223 L 1040 223 L 1042 225 L 1042 226 L 1051 235 L 1126 235 L 1133 228 L 1133 227 L 1156 204 L 1208 204 L 1209 205 L 1208 206 L 1206 206 L 1209 206 L 1209 204" fill="none" stroke="red" stroke-width="2"/><path d="M 172 202 L 172 204 L 174 204 L 174 202" fill="none" stroke="red" stroke-width="2"/><path d="M 142 202 L 141 203 L 142 204 L 143 204 L 142 204 L 141 203 L 142 202 L 143 202" fill="none" stroke="red" stroke-width="2"/><path d="M 691 193 L 690 194 L 690 197 L 691 198 L 694 198 L 695 197 L 695 194 L 694 193" fill="none" stroke="red" stroke-width="2"/><path d="M 358 190 L 345 203 L 344 203 L 343 204 L 337 204 L 344 204 L 353 195 L 354 195 L 356 193 L 356 192 L 358 190 L 432 190 L 453 211 L 453 212 L 471 230 L 616 230 L 624 238 L 701 238 L 710 247 L 710 250 L 711 251 L 711 252 L 713 254 L 713 255 L 712 256 L 713 257 L 712 258 L 711 258 L 709 256 L 710 255 L 709 255 L 709 257 L 710 257 L 711 258 L 712 258 L 713 259 L 711 261 L 711 262 L 710 263 L 710 264 L 709 265 L 708 264 L 709 265 L 710 265 L 710 263 L 715 258 L 718 258 L 722 262 L 722 265 L 722 261 L 720 259 L 719 259 L 718 258 L 715 258 L 714 259 L 713 259 L 712 258 L 713 257 L 712 256 L 713 255 L 713 253 L 710 250 L 710 246 L 703 239 L 702 239 L 701 238 L 625 238 L 618 231 L 617 231 L 616 230 L 472 230 L 452 210 L 452 209 L 434 191 L 433 191 L 432 190" fill="none" stroke="red" stroke-width="2"/><path d="M 1011 187 L 1010 188 L 1009 188 L 1009 189 L 1008 190 L 1009 191 L 1009 192 L 1010 193 L 1014 193 L 1016 191 L 1045 191 L 1075 221 L 1075 222 L 1078 225 L 1101 225 L 1103 227 L 1103 228 L 1104 229 L 1105 229 L 1106 230 L 1114 230 L 1116 228 L 1116 227 L 1117 226 L 1117 220 L 1116 219 L 1116 218 L 1115 217 L 1114 217 L 1113 216 L 1112 216 L 1111 215 L 1108 215 L 1107 216 L 1106 216 L 1103 219 L 1103 220 L 1101 222 L 1080 222 L 1071 213 L 1071 212 L 1048 189 L 1047 189 L 1046 188 L 1013 188 L 1012 187" fill="none" stroke="red" stroke-width="2"/><path d="M 358 187 L 357 188 L 356 188 L 342 202 L 340 202 L 339 201 L 338 201 L 337 202 L 181 202 L 180 203 L 181 204 L 244 204 L 181 204 L 180 203 L 181 202 L 337 202 L 338 201 L 339 201 L 340 202 L 342 202 L 350 194 L 351 194 L 354 191 L 354 190 L 356 188 L 357 188 L 358 187 L 433 187 L 460 214 L 460 215 L 472 227 L 609 227 L 610 226 L 611 226 L 612 227 L 618 227 L 625 234 L 703 234 L 712 243 L 714 243 L 715 242 L 719 242 L 722 245 L 722 246 L 723 247 L 723 251 L 722 252 L 722 254 L 721 255 L 715 255 L 721 255 L 722 254 L 722 252 L 723 251 L 723 246 L 721 244 L 721 243 L 720 243 L 719 242 L 715 242 L 714 243 L 713 243 L 705 235 L 704 235 L 703 234 L 626 234 L 620 228 L 619 228 L 618 227 L 612 227 L 611 226 L 610 226 L 609 227 L 473 227 L 459 213 L 459 212 L 435 188 L 434 188 L 433 187" fill="none" stroke="red" stroke-width="2"/><path d="M 763 186 L 762 187 L 761 187 L 759 189 L 759 192 L 760 193 L 761 193 L 762 194 L 764 194 L 766 192 L 766 188 L 765 187 L 764 187" fill="none" stroke="red" stroke-width="2"/><path d="M 374 168 L 386 168" fill="none" stroke="red" stroke-width="2"/><path d="M 1098 167 L 1097 168 L 1096 168 L 1095 169 L 1094 169 L 1094 170 L 1093 171 L 1093 175 L 1094 176 L 1094 177 L 1095 178 L 1102 178 L 1103 177 L 1103 170 L 1102 169 L 1101 169 L 1100 168 L 1099 168" fill="none" stroke="red" stroke-width="2"/><path d="M 564 165 L 564 166 L 563 167 L 564 168 L 567 168 L 567 166 L 566 165" fill="none" stroke="red" stroke-width="2"/><path d="M 317 161 L 316 162 L 315 162 L 314 163 L 314 164 L 313 165 L 313 166 L 312 167 L 312 168 L 313 169 L 313 170 L 314 171 L 314 172 L 315 173 L 317 173 L 318 174 L 320 174 L 321 173 L 323 173 L 324 172 L 324 171 L 325 170 L 325 166 L 324 165 L 324 164 L 323 163 L 322 163 L 325 166 L 325 170 L 322 173 L 321 173 L 320 174 L 318 174 L 317 173 L 316 173 L 313 170 L 313 169 L 312 168 L 312 167 L 313 166 L 313 165 L 317 161 L 321 161" fill="none" stroke="red" stroke-width="2"/><path d="M 1104 156 L 1112 156" fill="none" stroke="red" stroke-width="2"/><path d="M 1065 156 L 1064 157 L 1063 157 L 1052 168 L 1052 169 L 1049 172 L 1050 171 L 1051 172 L 1089 172 L 1090 171 L 1090 170 L 1095 165 L 1101 165 L 1102 166 L 1103 166 L 1106 169 L 1106 171 L 1107 172 L 1107 175 L 1106 176 L 1106 178 L 1103 181 L 1102 181 L 1101 182 L 1095 182 L 1090 177 L 1090 176 L 1089 176 L 1088 175 L 1029 175 L 1088 175 L 1091 178 L 1091 179 L 1093 181 L 1094 181 L 1095 182 L 1101 182 L 1102 181 L 1103 181 L 1104 180 L 1105 180 L 1106 179 L 1106 176 L 1107 175 L 1107 172 L 1106 171 L 1106 169 L 1105 168 L 1105 167 L 1104 167 L 1103 166 L 1102 166 L 1101 165 L 1095 165 L 1094 166 L 1093 166 L 1091 168 L 1091 169 L 1090 170 L 1090 171 L 1089 172 L 1051 172 L 1050 171 L 1065 156 L 1070 156" fill="none" stroke="red" stroke-width="2"/><path d="M 1082 138 L 1068 152 L 1068 153 L 1133 153 L 1135 155 L 1136 155 L 1153 172 L 1153 173 L 1152 174 L 1151 174 L 1133 156 L 1132 156 L 1133 156 L 1166 189 L 1168 189 L 1167 189 L 1166 188 L 1165 188 L 1152 175 L 1152 174 L 1153 173 L 1154 173 L 1167 186 L 1174 186 L 1175 187 L 1216 187 L 1217 188 L 1216 189 L 1176 189 L 1217 189 L 1217 187 L 1175 187 L 1174 186 L 1167 186 L 1135 154 L 1134 154 L 1133 153 L 1069 153 L 1068 152 L 1075 145 L 1076 145 L 1080 141 L 1080 140 L 1082 138 L 1088 138" fill="none" stroke="red" stroke-width="2"/><path d="M 345 136 L 365 156 L 365 157 L 370 162 L 371 162 L 373 164 L 373 165 L 372 166 L 330 166 L 327 163 L 327 162 L 324 159 L 323 159 L 322 158 L 316 158 L 315 159 L 314 159 L 311 162 L 311 163 L 310 164 L 310 165 L 309 166 L 309 170 L 310 171 L 310 172 L 311 173 L 311 174 L 312 175 L 313 175 L 314 176 L 315 176 L 316 177 L 322 177 L 323 176 L 325 176 L 326 175 L 326 174 L 327 173 L 327 172 L 328 171 L 328 170 L 329 169 L 328 170 L 328 171 L 327 172 L 327 173 L 324 176 L 323 176 L 322 177 L 316 177 L 315 176 L 314 176 L 310 172 L 310 171 L 309 170 L 309 166 L 310 165 L 310 164 L 316 158 L 322 158 L 328 164 L 328 165 L 329 166 L 373 166 L 373 164 L 351 142 L 351 141 L 348 138 L 347 138 L 346 137 L 346 136" fill="none" stroke="red" stroke-width="2"/><path d="M 719 135 L 718 136 L 717 136 L 717 137 L 716 138 L 716 139 L 718 141 L 720 141 L 721 140 L 721 136 L 720 136" fill="none" stroke="red" stroke-width="2"/><path d="M 343 133 L 342 134 L 274 134 L 274 136 L 341 136 L 278 136 L 277 135 L 278 134 L 342 134 L 343 133 L 346 133 L 366 153 L 366 154 L 373 161 L 374 161 L 375 162 L 375 163 L 377 165 L 378 165 L 379 166 L 384 166 L 385 165 L 386 166 L 392 166 L 393 165 L 443 165 L 444 166 L 445 166 L 451 172 L 451 173 L 475 197 L 559 197 L 560 196 L 598 196 L 599 197 L 604 197 L 619 212 L 639 212 L 643 216 L 643 217 L 649 223 L 710 223 L 730 243 L 730 244 L 735 249 L 746 249 L 747 250 L 760 250 L 778 232 L 889 232 L 890 233 L 890 234 L 889 235 L 780 235 L 779 236 L 778 236 L 767 247 L 767 248 L 761 254 L 735 254 L 729 248 L 729 247 L 709 227 L 649 227 L 641 219 L 641 218 L 640 217 L 639 217 L 638 216 L 619 216 L 610 207 L 610 206 L 605 201 L 604 201 L 603 200 L 475 200 L 448 173 L 448 172 L 445 169 L 444 169 L 443 168 L 392 168 L 443 168 L 450 175 L 450 176 L 474 200 L 603 200 L 611 208 L 611 209 L 617 215 L 618 215 L 619 216 L 638 216 L 642 220 L 642 221 L 647 226 L 648 226 L 649 227 L 708 227 L 730 249 L 730 250 L 731 251 L 732 251 L 735 254 L 761 254 L 762 253 L 763 253 L 766 250 L 766 249 L 780 235 L 890 235 L 890 233 L 889 232 L 778 232 L 777 233 L 776 233 L 759 250 L 747 250 L 746 249 L 736 249 L 729 242 L 729 241 L 712 224 L 711 224 L 710 223 L 650 223 L 642 215 L 642 214 L 641 213 L 640 213 L 639 212 L 620 212 L 606 198 L 605 198 L 604 197 L 599 197 L 598 196 L 560 196 L 559 197 L 476 197 L 449 170 L 449 169 L 447 167 L 446 167 L 445 166 L 444 166 L 443 165 L 393 165 L 392 166 L 386 166 L 385 165 L 384 166 L 379 166 L 352 139 L 352 138 L 351 137 L 350 137 L 346 133" fill="none" stroke="red" stroke-width="2"/><path d="M 1125 130 L 1123 132 L 1123 133 L 1122 134 L 1121 134 L 1120 135 L 1082 135 L 1081 136 L 1080 136 L 1051 165 L 1051 166 L 1045 172 L 1010 172 L 1009 173 L 1008 173 L 1007 174 L 1007 175 L 959 223 L 907 223 L 906 222 L 906 221 L 903 218 L 902 218 L 901 217 L 896 217 L 895 218 L 894 218 L 892 220 L 892 221 L 891 222 L 891 223 L 890 224 L 890 227 L 891 228 L 891 229 L 892 230 L 892 231 L 893 232 L 894 232 L 895 233 L 903 233 L 906 230 L 906 229 L 909 226 L 962 226 L 962 225 L 998 189 L 998 188 L 1011 175 L 1018 175 L 1011 175 L 1010 176 L 1009 176 L 1008 177 L 1008 178 L 963 223 L 963 224 L 961 226 L 909 226 L 908 227 L 907 227 L 907 228 L 902 233 L 895 233 L 891 229 L 891 228 L 890 227 L 890 224 L 891 223 L 891 222 L 896 217 L 901 217 L 907 223 L 960 223 L 999 184 L 999 183 L 1010 172 L 1046 172 L 1047 171 L 1047 170 L 1066 151 L 1066 150 L 1072 144 L 1073 144 L 1082 135 L 1120 135 L 1121 134 L 1122 134 L 1123 135 L 1123 136 L 1122 137 L 1121 137 L 1122 137 L 1123 136 L 1123 132 L 1125 130 L 1126 130 L 1127 131 L 1126 132 L 1126 133 L 1125 134 L 1125 135 L 1125 134 L 1127 132 L 1127 130" fill="none" stroke="red" stroke-width="2"/><path d="M 701 126 L 701 134" fill="none" stroke="red" stroke-width="2"/><path d="M 1051 118 L 1051 119 L 1052 120 L 1052 121 L 1053 122 L 1060 122 L 1061 121 L 1061 119 L 1061 120 L 1059 122 L 1054 122 L 1051 119" fill="none" stroke="red" stroke-width="2"/><path d="M 1046 118 L 1049 118" fill="none" stroke="red" stroke-width="2"/><path d="M 421 115 L 425 115" fill="none" stroke="red" stroke-width="2"/><path d="M 417 115" fill="none" stroke="red" stroke-width="2"/><path d="M 356 115 L 403 115" fill="none" stroke="red" stroke-width="2"/><path d="M 1059 112 L 1060 112 L 1061 113 L 1061 114 L 1062 115 L 1062 117 L 1062 115 L 1061 114 L 1061 113 L 1060 112" fill="none" stroke="red" stroke-width="2"/><path d="M 478 112 L 477 113 L 476 113 L 475 114 L 475 115 L 474 116 L 474 117 L 473 118 L 473 119 L 474 120 L 474 121 L 477 124 L 483 124 L 484 123 L 485 123 L 485 122 L 486 121 L 486 115 L 484 113 L 483 113 L 482 112" fill="none" stroke="red" stroke-width="2"/><path d="M 1054 111 L 1052 113 L 1052 114 L 1050 116 L 1045 116 L 1044 115 L 1031 115 L 1030 116 L 1029 116 L 1005 140 L 1005 141 L 1003 143 L 1002 143 L 1001 144 L 1001 145 L 957 189 L 894 189 L 893 190 L 892 190 L 879 203 L 879 204 L 871 212 L 793 212 L 792 213 L 791 213 L 786 218 L 771 218 L 770 219 L 769 219 L 765 223 L 756 223 L 737 204 L 737 203 L 735 201 L 734 201 L 732 199 L 732 171 L 720 159 L 720 158 L 719 157 L 719 147 L 724 142 L 724 134 L 723 134 L 722 133 L 721 133 L 720 132 L 718 132 L 717 133 L 716 133 L 714 135 L 714 136 L 713 137 L 713 140 L 714 141 L 714 142 L 716 144 L 716 159 L 717 160 L 717 161 L 728 172 L 728 199 L 729 200 L 729 201 L 743 215 L 743 216 L 754 227 L 767 227 L 773 221 L 789 221 L 795 215 L 873 215 L 888 200 L 888 199 L 895 192 L 959 192 L 997 154 L 997 153 L 1024 126 L 1024 125 L 1031 118 L 1041 118 L 1031 118 L 1002 147 L 1002 148 L 958 192 L 895 192 L 894 193 L 893 193 L 889 197 L 889 198 L 872 215 L 795 215 L 794 216 L 793 216 L 788 221 L 773 221 L 772 222 L 771 222 L 766 227 L 755 227 L 742 214 L 742 213 L 728 199 L 728 172 L 727 171 L 727 170 L 716 159 L 716 143 L 713 140 L 713 137 L 714 136 L 714 135 L 716 133 L 717 133 L 718 132 L 720 132 L 721 133 L 722 133 L 724 135 L 724 141 L 720 145 L 720 146 L 719 147 L 719 157 L 720 158 L 720 159 L 721 160 L 721 161 L 732 172 L 732 199 L 738 205 L 738 206 L 755 223 L 766 223 L 771 218 L 786 218 L 787 217 L 788 217 L 793 212 L 872 212 L 878 206 L 878 205 L 894 189 L 958 189 L 996 151 L 996 150 L 1023 123 L 1023 122 L 1028 117 L 1029 117 L 1031 115 L 1044 115 L 1045 116 L 1050 116 L 1052 114 L 1052 113 L 1054 111 L 1056 111 L 1057 112 L 1055 114 L 1054 114 L 1054 115 L 1053 116 L 1053 117 L 1054 118 L 1054 119 L 1055 119 L 1056 120 L 1058 120 L 1059 119 L 1059 115 L 1058 114 L 1059 115 L 1059 118 L 1057 120 L 1056 120 L 1053 117 L 1053 116 L 1057 112 L 1057 111" fill="none" stroke="red" stroke-width="2"/><path d="M 346 110 L 351 115 L 352 115 L 351 115" fill="none" stroke="red" stroke-width="2"/><path d="M 343 106 L 345 108" fill="none" stroke="red" stroke-width="2"/><path d="M 345 105 L 353 113 L 429 113 L 430 114 L 431 114 L 432 115 L 432 116 L 457 141 L 457 142 L 480 165 L 561 165 L 564 162 L 566 162 L 569 165 L 569 170 L 568 171 L 567 171 L 566 172 L 564 172 L 561 169 L 560 169 L 559 168 L 480 168 L 446 134 L 446 133 L 429 116 L 431 118 L 431 119 L 456 144 L 456 145 L 479 168 L 559 168 L 562 171 L 563 171 L 564 172 L 566 172 L 567 171 L 568 171 L 569 170 L 569 164 L 568 163 L 567 163 L 566 162 L 564 162 L 563 163 L 562 163 L 560 165 L 481 165 L 447 131 L 447 130 L 431 114 L 430 114 L 429 113 L 353 113" fill="none" stroke="red" stroke-width="2"/><path d="M 797 103 L 797 123" fill="none" stroke="red" stroke-width="2"/><path d="M 342 103 L 341 104 L 342 103 L 343 103" fill="none" stroke="red" stroke-width="2"/><path d="M 446 99 L 453 99" fill="none" stroke="red" stroke-width="2"/><path d="M 432 99 L 444 99" fill="none" stroke="red" stroke-width="2"/><path d="M 336 98 L 337 99 L 337 100 L 338 101 L 338 102 L 338 101 L 337 100 L 337 99" fill="none" stroke="red" stroke-width="2"/><path d="M 386 97 L 462 97 L 474 109 L 478 109 L 479 108 L 482 108 L 483 109 L 484 109 L 489 114 L 489 123 L 485 127 L 484 127 L 483 128 L 478 128 L 477 127 L 476 127 L 471 122 L 471 121 L 470 120 L 470 116 L 471 115 L 471 114 L 472 113 L 472 110 L 462 100 L 461 100 L 472 111 L 472 113 L 471 114 L 471 115 L 470 116 L 470 120 L 471 121 L 471 122 L 472 123 L 472 124 L 475 127 L 477 127 L 478 128 L 483 128 L 484 127 L 485 127 L 486 126 L 487 126 L 488 125 L 488 124 L 489 123 L 489 114 L 488 113 L 488 112 L 486 110 L 485 110 L 484 109 L 483 109 L 482 108 L 479 108 L 478 109 L 475 109 L 464 98 L 463 98 L 462 97" fill="none" stroke="red" stroke-width="2"/><path d="M 333 95 L 333 96" fill="none" stroke="red" stroke-width="2"/><path d="M 335 93 L 335 94 L 336 95 L 337 95 L 339 97 L 339 98 L 339 97 L 337 95 L 336 95 L 335 94" fill="none" stroke="red" stroke-width="2"/><path d="M 333 92 L 332 93" fill="none" stroke="red" stroke-width="2"/><path d="M 376 88 L 376 90 L 379 93 L 380 93 L 381 94 L 381 95 L 385 99 L 422 99 L 385 99 L 381 95 L 381 94 L 380 93 L 379 93 L 377 91 L 377 90 L 376 89 L 377 88 L 378 88 L 385 95 L 383 93 L 383 92 L 382 92 L 378 88" fill="none" stroke="red" stroke-width="2"/><path d="M 1039 87 L 1040 87" fill="none" stroke="red" stroke-width="2"/><path d="M 1036 87" fill="none" stroke="red" stroke-width="2"/><path d="M 1028 87" fill="none" stroke="red" stroke-width="2"/><path d="M 1023 87" fill="none" stroke="red" stroke-width="2"/><path d="M 1009 87 L 1019 87" fill="none" stroke="red" stroke-width="2"/><path d="M 369 86 L 368 87 L 369 88 L 373 88 L 369 88 L 368 87 L 369 86 L 374 86" fill="none" stroke="red" stroke-width="2"/><path d="M 340 86 L 339 87 L 340 88 L 345 88 L 345 86" fill="none" stroke="red" stroke-width="2"/><path d="M 1043 85" fill="none" stroke="red" stroke-width="2"/><path d="M 1044 83" fill="none" stroke="red" stroke-width="2"/><path d="M 1045 81 L 1046 82 L 1046 83 L 1046 82 L 1047 81 L 1048 81 L 1047 81 L 1046 82" fill="none" stroke="red" stroke-width="2"/><path d="M 1046 79" fill="none" stroke="red" stroke-width="2"/><path d="M 795 79 L 794 80 L 793 80 L 793 81 L 792 82 L 793 83 L 793 84 L 794 85 L 797 85 L 798 84 L 798 80 L 797 80 L 796 79" fill="none" stroke="red" stroke-width="2"/><path d="M 1049 76 L 1049 77 L 1048 78 L 1048 79 L 1048 78 L 1049 77 L 1050 78 L 1051 78 L 1051 76" fill="none" stroke="red" stroke-width="2"/><path d="M 795 76 L 794 77 L 793 77 L 792 78 L 791 78 L 791 79 L 790 80 L 790 81 L 789 82 L 790 83 L 790 84 L 791 85 L 791 86 L 792 87 L 793 87 L 794 88 L 794 124 L 765 153 L 765 154 L 764 155 L 764 182 L 763 183 L 761 183 L 760 184 L 759 184 L 758 185 L 757 185 L 757 186 L 756 187 L 756 188 L 755 189 L 755 192 L 756 193 L 756 194 L 757 195 L 757 196 L 758 197 L 760 197 L 761 198 L 764 198 L 765 197 L 767 197 L 769 195 L 769 194 L 770 193 L 770 189 L 769 188 L 769 186 L 767 184 L 767 157 L 770 154 L 770 153 L 796 127 L 796 125 L 796 126 L 771 151 L 771 152 L 768 155 L 768 156 L 767 157 L 767 184 L 768 185 L 768 186 L 769 187 L 769 188 L 770 189 L 770 193 L 766 197 L 765 197 L 764 198 L 761 198 L 760 197 L 759 197 L 756 194 L 756 193 L 755 192 L 755 189 L 756 188 L 756 187 L 759 184 L 760 184 L 761 183 L 764 183 L 764 155 L 794 125 L 794 88 L 790 84 L 790 83 L 789 82 L 790 81 L 790 80 L 793 77 L 794 77 L 795 76 L 796 76 L 797 77 L 798 77 L 801 80 L 801 84 L 798 87 L 798 88 L 797 89 L 797 92 L 797 89 L 800 86 L 800 85 L 801 84 L 801 80 L 800 79 L 800 78 L 799 78 L 798 77 L 797 77 L 796 76" fill="none" stroke="red" stroke-width="2"/><path d="M 534 65 L 541 72 L 543 72 L 542 72 L 541 71 L 540 71" fill="none" stroke="red" stroke-width="2"/><path d="M 491 61 L 504 61" fill="none" stroke="red" stroke-width="2"/><path d="M 533 60 L 543 70 L 595 70 L 617 92 L 617 93 L 641 117 L 641 140 L 642 141 L 642 142 L 658 158 L 658 173 L 659 174 L 659 175 L 681 197 L 681 210 L 682 211 L 682 212 L 683 213 L 686 213 L 687 212 L 688 212 L 689 213 L 691 213 L 692 212 L 696 212 L 700 208 L 703 208 L 704 209 L 705 209 L 707 211 L 707 212 L 708 213 L 708 215 L 707 216 L 707 218 L 705 220 L 699 220 L 695 216 L 682 216 L 678 212 L 678 200 L 677 199 L 677 197 L 662 182 L 662 181 L 655 174 L 655 159 L 653 157 L 653 156 L 638 141 L 638 117 L 596 75 L 596 74 L 595 73 L 594 73 L 616 95 L 616 96 L 638 118 L 638 141 L 639 142 L 639 143 L 654 158 L 654 159 L 655 160 L 655 174 L 656 175 L 656 176 L 663 183 L 663 184 L 677 198 L 677 199 L 678 200 L 678 212 L 679 213 L 679 214 L 681 216 L 695 216 L 697 218 L 697 219 L 698 219 L 699 220 L 705 220 L 707 218 L 707 216 L 708 215 L 708 213 L 707 212 L 707 210 L 706 210 L 705 209 L 704 209 L 703 208 L 700 208 L 699 209 L 698 209 L 697 210 L 697 211 L 696 212 L 692 212 L 691 213 L 689 213 L 688 212 L 687 212 L 686 213 L 684 213 L 681 210 L 681 196 L 658 173 L 658 157 L 641 140 L 641 116 L 597 72 L 597 71 L 596 71 L 595 70 L 543 70" fill="none" stroke="red" stroke-width="2"/><path d="M 848 58 L 847 59 L 846 59 L 846 60 L 845 61 L 845 97 L 840 102 L 840 103 L 819 124 L 819 125 L 836 108 L 836 107 L 845 98 L 845 61" fill="none" stroke="red" stroke-width="2"/><path d="M 849 54 L 849 55" fill="none" stroke="red" stroke-width="2"/><path d="M 459 53" fill="none" stroke="red" stroke-width="2"/><path d="M 730 52 L 727 55 L 727 59 L 727 55 L 729 53 L 730 53" fill="none" stroke="red" stroke-width="2"/><path d="M 840 50 L 839 51 L 839 52 L 838 53 L 838 55 L 839 56 L 839 57 L 842 60 L 842 96 L 839 99 L 839 100 L 817 122 L 817 123 L 816 124 L 816 135 L 815 136 L 815 138 L 816 139 L 816 141 L 815 142 L 815 155 L 803 167 L 788 167 L 787 168 L 786 168 L 778 176 L 778 177 L 777 178 L 777 200 L 775 202 L 774 202 L 773 203 L 773 206 L 774 207 L 773 208 L 756 208 L 746 198 L 746 120 L 745 119 L 745 118 L 727 100 L 727 61 L 727 100 L 728 101 L 728 102 L 746 120 L 746 198 L 747 199 L 747 200 L 755 208 L 773 208 L 774 207 L 776 207 L 777 208 L 780 208 L 796 192 L 869 192 L 870 191 L 871 191 L 877 185 L 877 184 L 892 169 L 893 169 L 894 168 L 922 168 L 931 159 L 932 159 L 934 157 L 934 156 L 976 114 L 976 113 L 1004 85 L 1020 85 L 1021 84 L 1022 85 L 1024 85 L 1025 84 L 1026 84 L 1027 85 L 1029 85 L 1030 84 L 1034 84 L 1035 85 L 1040 85 L 1042 83 L 1040 85 L 1035 85 L 1034 84 L 1030 84 L 1029 85 L 1027 85 L 1026 84 L 1025 84 L 1024 85 L 1022 85 L 1021 84 L 1020 85 L 1004 85 L 1003 86 L 1002 86 L 1002 87 L 935 154 L 935 155 L 925 165 L 924 165 L 921 168 L 894 168 L 893 169 L 892 169 L 891 170 L 890 170 L 878 182 L 878 183 L 869 192 L 796 192 L 795 193 L 794 193 L 779 208 L 777 208 L 776 207 L 780 203 L 780 180 L 781 179 L 781 178 L 785 174 L 786 174 L 790 170 L 805 170 L 818 157 L 818 131 L 818 156 L 804 170 L 790 170 L 789 171 L 788 171 L 784 175 L 783 175 L 782 176 L 782 177 L 781 178 L 781 179 L 780 180 L 780 202 L 775 207 L 773 205 L 773 204 L 777 200 L 777 178 L 788 167 L 804 167 L 815 156 L 815 142 L 816 141 L 816 139 L 815 138 L 815 136 L 816 135 L 816 124 L 835 105 L 835 104 L 842 97 L 842 59 L 841 59 L 839 57 L 839 56 L 838 55 L 838 53 L 839 52 L 839 51" fill="none" stroke="red" stroke-width="2"/><path d="M 452 49 L 451 50 L 452 51 L 454 51 L 462 59 L 462 60 L 466 64 L 467 64 L 466 64 L 465 63 L 465 62 L 466 61 L 467 61 L 469 63 L 470 63 L 471 64 L 471 65 L 496 90 L 496 91 L 522 117 L 540 117 L 572 149 L 572 150 L 603 181 L 618 181 L 632 195 L 644 195 L 657 208 L 663 208 L 665 210 L 665 211 L 663 213 L 658 213 L 645 200 L 644 200 L 643 199 L 642 199 L 641 198 L 631 198 L 624 191 L 624 190 L 619 185 L 618 185 L 617 184 L 602 184 L 601 183 L 601 182 L 563 144 L 563 143 L 541 121 L 540 121 L 539 120 L 522 120 L 469 67 L 469 66 L 469 67 L 495 93 L 495 94 L 521 120 L 539 120 L 571 152 L 571 153 L 602 184 L 617 184 L 625 192 L 625 193 L 630 198 L 641 198 L 642 199 L 643 199 L 656 212 L 657 212 L 658 213 L 664 213 L 665 212 L 665 209 L 664 209 L 663 208 L 658 208 L 646 196 L 645 196 L 644 195 L 633 195 L 620 182 L 619 182 L 618 181 L 604 181 L 564 141 L 564 140 L 544 120 L 543 120 L 540 117 L 523 117 L 471 65 L 471 64 L 470 63 L 469 63 L 464 58 L 464 57 L 461 54 L 463 56 L 463 57 L 466 60 L 466 61 L 465 62 L 464 62 L 463 61 L 463 60 L 455 52 L 455 51 L 452 51 L 451 50 L 452 49 L 456 49 L 458 51 L 456 49" fill="none" stroke="red" stroke-width="2"/><path d="M 435 49 L 439 49 L 440 50 L 439 51 L 435 51 L 440 51 L 440 49" fill="none" stroke="red" stroke-width="2"/><path d="M 845 48 L 844 49 L 842 49 L 844 49 L 845 48 L 846 49 L 847 49 L 848 50 L 848 51 L 847 52 L 846 52 L 845 51 L 843 51 L 841 53 L 843 51 L 845 51 L 847 53 L 847 55 L 845 57 L 843 57 L 841 55 L 841 56 L 842 57 L 845 57 L 847 55 L 847 52 L 848 51 L 849 51 L 846 48" fill="none" stroke="red" stroke-width="2"/><path d="M 729 47 L 729 50 L 728 51 L 724 51 L 723 50 L 724 51 L 728 51 L 729 50" fill="none" stroke="red" stroke-width="2"/><path d="M 409 47 L 409 49 L 410 49 L 411 48 L 412 49 L 412 51 L 432 51 L 432 49 L 412 49 L 411 48 L 411 47" fill="none" stroke="red" stroke-width="2"/><path d="M 727 46" fill="none" stroke="red" stroke-width="2"/><path d="M 724 46 L 723 47 L 723 48 L 725 46" fill="none" stroke="red" stroke-width="2"/><path d="M 519 45 L 518 46 L 518 48 L 533 63 L 526 56 L 528 54 L 532 58" fill="none" stroke="red" stroke-width="2"/><path d="M 476 44 L 484 52 L 484 53 L 483 54 L 482 54 L 479 51 L 479 50 L 478 49 L 477 49 L 475 47 L 487 59 L 487 60 L 488 60 L 483 55 L 483 54 L 484 53 L 485 53 L 488 56 L 488 57 L 489 58 L 490 58 L 491 59 L 505 59 L 506 58 L 512 58 L 518 64 L 516 66 L 513 63 L 513 62 L 512 61 L 511 61 L 532 82 L 532 83 L 545 96 L 568 96 L 609 137 L 609 138 L 631 160 L 631 181 L 632 182 L 632 183 L 636 187 L 639 187 L 639 183 L 637 181 L 636 181 L 634 179 L 634 158 L 618 142 L 618 141 L 612 135 L 611 135 L 603 127 L 603 126 L 571 94 L 570 94 L 569 93 L 547 93 L 514 60 L 514 59 L 513 59 L 512 58 L 506 58 L 505 59 L 491 59 L 490 58 L 489 58 L 488 57 L 488 56" fill="none" stroke="red" stroke-width="2"/><path d="M 724 43 L 723 44 L 722 44 L 722 45 L 721 46 L 721 47 L 720 48 L 720 50 L 721 51 L 721 52 L 722 53 L 723 53 L 724 54 L 724 101 L 725 102 L 725 103 L 743 121 L 743 200 L 744 201 L 744 202 L 754 212 L 781 212 L 793 200 L 793 199 L 797 195 L 871 195 L 890 176 L 890 175 L 894 171 L 924 171 L 924 170 L 934 160 L 935 160 L 940 155 L 940 154 L 975 119 L 975 118 L 1006 87 L 1005 87 L 1003 89 L 1003 90 L 941 152 L 941 153 L 928 166 L 927 166 L 925 168 L 925 169 L 923 171 L 894 171 L 893 172 L 892 172 L 891 173 L 891 174 L 870 195 L 797 195 L 796 196 L 795 196 L 794 197 L 794 198 L 780 212 L 755 212 L 743 200 L 743 120 L 724 101 L 724 54 L 723 53 L 722 53 L 721 52 L 721 51 L 720 50 L 720 48 L 721 47 L 721 46 L 724 43 L 727 43 L 728 44 L 729 44 L 731 46 L 731 50 L 731 46 L 729 44 L 728 44 L 727 43" fill="none" stroke="red" stroke-width="2"/><path d="M 407 43 L 407 45 L 409 45 L 409 43" fill="none" stroke="red" stroke-width="2"/><path d="M 474 42 L 473 43 L 474 44 L 474 45 L 474 44 L 473 43" fill="none" stroke="red" stroke-width="2"/><path d="M 550 37 L 551 38 L 551 39 L 556 44 L 554 46 L 549 41 L 549 40 L 548 39 L 549 40 L 549 41 L 559 51 L 608 51 L 559 51 L 556 48 L 558 46 L 561 49 L 609 49 L 610 48 L 617 48 L 619 50 L 620 50 L 646 76 L 646 77 L 680 111 L 680 165 L 681 166 L 681 167 L 693 179 L 693 188 L 698 193 L 698 198 L 695 201 L 690 201 L 686 197 L 686 195 L 687 194 L 687 193 L 690 190 L 690 180 L 689 179 L 689 178 L 677 166 L 677 111 L 617 51 L 616 51 L 617 51 L 645 79 L 645 80 L 677 112 L 677 166 L 678 167 L 678 168 L 690 180 L 690 189 L 688 191 L 688 192 L 687 193 L 687 194 L 686 195 L 686 197 L 687 198 L 687 199 L 689 201 L 696 201 L 698 199 L 698 192 L 696 190 L 695 190 L 693 188 L 693 178 L 680 165 L 680 110 L 619 49 L 618 49 L 617 48 L 610 48 L 609 49 L 561 49 L 551 39 L 551 38" fill="none" stroke="red" stroke-width="2"/><path d="M 548 37" fill="none" stroke="red" stroke-width="2"/><path d="M 510 37 L 510 39 L 512 39 L 512 37" fill="none" stroke="red" stroke-width="2"/><path d="M 545 32 L 544 33 L 544 35 L 546 37 L 544 35 L 544 33 L 545 32 L 548 35" fill="none" stroke="red" stroke-width="2"/><path d="M 502 29 L 502 31 L 504 33 L 505 33 L 506 34 L 506 35 L 508 35 L 508 33 L 507 33 L 506 34 L 505 33 L 504 33 L 502 31 L 502 30 L 503 29 L 505 31 L 504 30 L 504 29" fill="none" stroke="red" stroke-width="2"/><path d="M 631 22 L 631 24 L 632 24 L 633 23 L 634 24 L 634 26 L 654 46 L 654 47 L 682 75 L 682 76 L 698 92 L 698 145 L 697 146 L 697 162 L 698 163 L 698 167 L 707 176 L 707 177 L 713 183 L 713 210 L 714 211 L 714 212 L 741 239 L 741 240 L 742 241 L 742 242 L 743 243 L 747 243 L 748 242 L 748 239 L 747 238 L 747 237 L 746 237 L 745 236 L 744 236 L 716 208 L 716 180 L 701 165 L 701 164 L 700 163 L 700 154 L 701 153 L 701 146 L 700 145 L 701 146 L 701 153 L 700 154 L 700 163 L 701 164 L 701 165 L 702 166 L 702 167 L 716 181 L 716 208 L 717 209 L 717 210 L 741 234 L 742 234 L 744 236 L 745 236 L 748 239 L 748 242 L 747 243 L 744 243 L 741 240 L 741 238 L 713 210 L 713 182 L 706 175 L 706 174 L 698 166 L 698 163 L 697 162 L 697 146 L 698 145 L 698 91 L 667 60 L 667 59 L 663 55 L 662 55 L 660 53 L 660 52 L 635 27 L 637 25 L 655 43 L 655 44 L 681 70 L 681 71 L 700 90 L 700 91 L 700 89 L 668 57 L 668 56 L 666 54 L 665 54 L 661 50 L 661 49 L 636 24 L 634 24 L 633 23 L 633 22" fill="none" stroke="red" stroke-width="2"/><path d="M 565 21" fill="none" stroke="red" stroke-width="2"/><path d="M 533 21 L 533 23 L 535 23 L 535 22 L 534 21" fill="none" stroke="red" stroke-width="2"/><path d="M 567 19" fill="none" stroke="red" stroke-width="2"/><path d="M 536 19 L 536 20 L 537 21 L 538 21 L 538 19" fill="none" stroke="red" stroke-width="2"/><path d="M 487 15 L 486 16 L 487 17 L 490 17 L 490 15" fill="none" stroke="red" stroke-width="2"/></svg>